<svg version="1.2" xmlns="http://www.w3.org/2000/svg" viewBox="0 0 32 32" width="32" height="32">
	<title>star-solid-full</title>
	<style>
		.s0 { fill: #fffff5 } 
	</style>
	<path class="s0" d="m16.5 9.1c-0.1-0.2-0.3-0.3-0.5-0.3-0.2 0-0.4 0.1-0.5 0.3l-1.9 3.6-4 0.7c-0.2 0-0.4 0.2-0.4 0.4-0.1 0.2-0.1 0.4 0.1 0.6l2.9 2.8-0.7 4c0 0.3 0.1 0.5 0.3 0.6 0.1 0.2 0.4 0.2 0.6 0.1l3.6-1.9 3.6 1.9c0.2 0.1 0.5 0.1 0.6-0.1 0.2-0.1 0.3-0.3 0.3-0.6l-0.7-4 2.9-2.8c0.2-0.2 0.2-0.4 0.1-0.6 0-0.2-0.2-0.4-0.4-0.4l-4-0.7z"/>
</svg>